<?xml version="1.0" encoding="utf-8"?>
<!-- Generator: Adobe Illustrator 24.1.1, SVG Export Plug-In . SVG Version: 6.00 Build 0)  -->
<svg version="1.1" id="Layer_1" xmlns="http://www.w3.org/2000/svg" xmlns:xlink="http://www.w3.org/1999/xlink" x="0px" y="0px"
	 viewBox="0 0 96 96" style="enable-background:new 0 0 96 96;" xml:space="preserve">
<style type="text/css">
	.st0{fill:none;stroke:#FFFFFF;stroke-width:4;stroke-linecap:round;stroke-linejoin:round;stroke-miterlimit:10;}
	.st1{fill:none;stroke:#FFFFFF;stroke-width:4;stroke-linejoin:round;stroke-miterlimit:10;}
</style>
<path class="st0" d="M61,66h14c1.7,0,3,1.3,3,3s-1.3,3-3,3H21c-1.7,0-3-1.3-3-3s1.3-3,3-3h29 M54.7,92H41.3L34,78h28L54.7,92z
	 M64,66h0.5c1.9,0,3.5-1.6,3.5-3.5V56H52c0,0-3,0.8-3-3c0-2.9,3-3,3-3h16v-5h-9c0,0-3,0-3-3c0-2.9,3-3,3-3h9v-9.5
	c0-1.9-1.6-3.5-3.5-3.5h-33c-1.9,0-3.5,1.6-3.5,3.5v33c0,1.9,1.6,3.5,3.5,3.5H32 M37.7,17h8.6l4.7,9H33L37.7,17z"/>
<path class="st1" d="M42,14v-3c0-1.6,1.8-3,4-3h4c2.2,0,4-1.3,4-3V2"/>
</svg>
