<?xml version="1.0" encoding="utf-8"?>
<!-- Generator: Adobe Illustrator 24.1.1, SVG Export Plug-In . SVG Version: 6.00 Build 0)  -->
<svg version="1.1" id="Layer_1" xmlns="http://www.w3.org/2000/svg" xmlns:xlink="http://www.w3.org/1999/xlink" x="0px" y="0px"
	 viewBox="0 0 100 125" style="enable-background:new 0 0 100 125;" xml:space="preserve">
<style type="text/css">
	.st0{fill:#FFFFFF;}
</style>
<path class="st0" d="M26.9,61.6c0,6.4,5.1,11.5,11.5,11.5S49.9,68,49.9,61.6c0-1.4,1.1-2.5,2.5-2.5s2.5,1.1,2.5,2.5
	c0,9.1-7.4,16.5-16.5,16.5c-9.1,0-16.5-7.4-16.5-16.5s7.4-16.5,16.5-16.5c0,0,0,0,0,0c1.4,0,2.5,1.1,2.5,2.5s-1.1,2.5-2.5,2.5
	C32,50.1,26.9,55.3,26.9,61.6z M6.9,70.2l3.6,0.6c0.5,1.4,1,2.7,1.7,4l-2.1,3c-1.8,2.6-1.5,6.1,0.7,8.3l3.1,3.1
	c2.2,2.2,5.7,2.5,8.3,0.7l3-2.1c1.3,0.7,2.7,1.2,4.1,1.7l0.6,3.6c0.5,3.1,3.2,5.4,6.3,5.4h4.4c3.1,0,5.8-2.3,6.4-5.3l0.6-3.6
	c1.4-0.5,2.7-1,4-1.7l3,2.1c2.6,1.8,6.1,1.5,8.3-0.7l3.1-3.1c2.2-2.2,2.5-5.7,0.7-8.3l-2.1-3c0.7-1.3,1.2-2.6,1.7-4l3.6-0.6
	c1.4-0.2,2.3-1.4,2.2-2.8c-0.2-1.4-1.4-2.3-2.8-2.2c-0.1,0-0.2,0-0.2,0l-5.2,0.9c-1,0.2-1.7,0.9-2,1.8c-0.5,2-1.4,4-2.4,5.8
	c-0.5,0.8-0.4,1.9,0.1,2.7l3,4.3c0.4,0.6,0.3,1.4-0.2,1.9l-3.1,3.1c-0.5,0.5-1.3,0.6-1.9,0.2l-4.3-3c-0.8-0.6-1.8-0.6-2.7-0.1
	c-1.8,1.1-3.8,1.9-5.8,2.4c-0.9,0.3-1.6,1-1.8,2L42,92.3c-0.1,0.7-0.7,1.2-1.4,1.2h-4.4c-0.7,0-1.3-0.5-1.4-1.2l-0.9-5.2
	c-0.2-1-0.9-1.7-1.8-2c-2-0.5-4-1.4-5.8-2.4c-0.8-0.5-1.9-0.4-2.7,0.1l-4.3,3c-0.6,0.4-1.4,0.3-1.9-0.2l-3.1-3.1
	c-0.5-0.5-0.6-1.3-0.2-1.9l3-4.3c0.6-0.8,0.6-1.8,0.1-2.7C16.2,72,15.4,70,14.8,68c-0.3-0.9-1-1.6-2-1.8l-5.2-0.9
	c-0.7-0.1-1.2-0.8-1.2-1.5v-4.4c0-0.7,0.5-1.3,1.2-1.4l5.2-0.9c1-0.2,1.7-0.9,2-1.8c0.5-2,1.4-4,2.4-5.8c0.5-0.8,0.4-1.9-0.1-2.7
	l-3-4.3c-0.4-0.6-0.3-1.4,0.2-1.9l3.1-3.1c0.5-0.5,1.3-0.6,1.9-0.2l4.3,3c0.8,0.6,1.8,0.6,2.7,0.1c1.8-1.1,3.7-1.9,5.8-2.4
	c0.9-0.3,1.6-1,1.8-2l0.9-5.1c0.3-1.3-0.5-2.7-1.9-3c-1.3-0.3-2.7,0.5-3,1.9c0,0.1,0,0.2,0,0.2l-0.6,3.6c-1.4,0.5-2.7,1-4,1.7
	l-3-2.1c-2.6-1.8-6.1-1.5-8.3,0.7l-3.1,3.1c-2.2,2.2-2.6,5.7-0.8,8.3l2.1,3c-0.7,1.3-1.2,2.7-1.7,4L6.8,53c-3.1,0.6-5.3,3.2-5.3,6.4
	v4.4C1.5,66.9,3.7,69.6,6.9,70.2L6.9,70.2z M98.5,29.4v3.4c0,2.7-2,5.1-4.7,5.5l-2.6,0.5c-0.3,0.9-0.7,1.8-1.1,2.7l1.5,2.1
	c1.6,2.2,1.3,5.3-0.6,7.2l-2.4,2.4c-1.9,1.9-5,2.2-7.2,0.6l-2.1-1.5c-0.9,0.4-1.8,0.8-2.7,1.1L76.2,56c-0.5,2.7-2.8,4.7-5.5,4.7
	h-3.4c-2.7,0-5.1-2-5.5-4.7l-0.5-2.5c-0.9-0.3-1.8-0.7-2.7-1.1l-2.1,1.5c-2.2,1.6-5.3,1.3-7.2-0.6l-2.4-2.4c-1.9-1.9-2.2-5-0.6-7.2
	l1.5-2.1c-0.4-0.9-0.8-1.8-1.1-2.7L44,38.4c-2.7-0.5-4.7-2.8-4.7-5.5v-3.4c0-2.7,2-5.1,4.7-5.5l2.5-0.5c0.3-0.9,0.7-1.8,1.1-2.7
	l-1.5-2.1c-1.6-2.2-1.3-5.3,0.6-7.2L49.2,9c1.9-1.9,5-2.2,7.2-0.6l2.1,1.5c0.9-0.4,1.8-0.8,2.7-1.2l0.5-2.6c0.5-2.7,2.8-4.7,5.5-4.6
	h3.4c2.7,0,5.1,2,5.5,4.7l0.4,2.5c0.9,0.3,1.8,0.7,2.7,1.1l2.1-1.5c2.2-1.6,5.3-1.3,7.2,0.6l2.4,2.4c1.9,1.9,2.2,5,0.6,7.2l-1.5,2.1
	c0.4,0.9,0.8,1.8,1.1,2.7l2.6,0.5C96.5,24.3,98.5,26.6,98.5,29.4z M93.5,29.4c0-0.3-0.2-0.6-0.5-0.6l-4.1-0.7c-1-0.2-1.7-0.9-2-1.8
	c-0.4-1.6-1-3.1-1.8-4.5c-0.5-0.8-0.4-1.9,0.1-2.7l2.4-3.4c0.2-0.2,0.1-0.6-0.1-0.8l-2.4-2.4c-0.2-0.2-0.6-0.2-0.8-0.1l-3.4,2.4
	c-0.8,0.6-1.8,0.6-2.7,0.1c-1.4-0.8-2.9-1.4-4.5-1.9c-0.9-0.3-1.6-1-1.8-2L71.2,7c-0.1-0.3-0.3-0.5-0.6-0.5h-3.4
	c-0.3,0-0.6,0.2-0.6,0.5l-0.7,4.1c-0.2,1-0.9,1.7-1.8,2c-1.6,0.4-3.1,1-4.5,1.9c-0.8,0.5-1.9,0.4-2.7-0.1l-3.4-2.4
	c-0.2-0.2-0.6-0.1-0.8,0.1l-2.4,2.4c-0.2,0.2-0.2,0.6-0.1,0.8l2.4,3.4c0.6,0.8,0.6,1.8,0.1,2.7c-0.8,1.4-1.4,2.9-1.8,4.5
	c-0.3,0.9-1,1.6-2,1.8l-4.1,0.7c-0.3,0.1-0.5,0.3-0.5,0.6v3.4c0,0.3,0.2,0.6,0.5,0.6l4.1,0.7c1,0.2,1.7,0.9,2,1.8
	c0.4,1.6,1,3.1,1.8,4.5c0.5,0.8,0.4,1.9-0.1,2.7l-2.4,3.4c-0.2,0.2-0.1,0.6,0.1,0.8l2.4,2.4c0.2,0.2,0.6,0.2,0.8,0.1l3.4-2.4
	c0.8-0.6,1.8-0.6,2.7-0.1c1.4,0.8,2.9,1.4,4.4,1.8c0.9,0.3,1.6,1,1.8,2l0.7,4.1c0.1,0.3,0.3,0.5,0.6,0.5h3.4c0.3,0,0.6-0.2,0.6-0.5
	l0.7-4.1c0.2-1,0.9-1.7,1.8-2c1.6-0.4,3.1-1,4.5-1.8c0.8-0.5,1.9-0.4,2.7,0.1l3.4,2.4c0.2,0.2,0.6,0.1,0.8-0.1l2.4-2.4
	c0.2-0.2,0.2-0.6,0.1-0.8l-2.3-3.4c-0.6-0.8-0.6-1.8-0.1-2.7c0.8-1.4,1.4-2.9,1.9-4.4c0.3-0.9,1-1.6,2-1.8l4.1-0.8
	c0.3-0.1,0.5-0.3,0.5-0.6L93.5,29.4z M80.7,31.1c0,6.5-5.3,11.8-11.8,11.8c-6.5,0-11.8-5.3-11.8-11.8c0-6.5,5.3-11.8,11.8-11.8
	c0,0,0,0,0,0C75.4,19.3,80.7,24.6,80.7,31.1z M75.7,31.1c0-3.8-3-6.8-6.8-6.8c-3.8,0-6.8,3-6.8,6.8c0,3.8,3,6.8,6.8,6.8
	C72.7,37.9,75.7,34.9,75.7,31.1C75.7,31.1,75.7,31.1,75.7,31.1z"/>
</svg>
