<?xml version="1.0" encoding="utf-8"?>
<!-- Generator: Adobe Illustrator 24.1.1, SVG Export Plug-In . SVG Version: 6.00 Build 0)  -->
<svg version="1.1" id="Layer_1" xmlns="http://www.w3.org/2000/svg" xmlns:xlink="http://www.w3.org/1999/xlink" x="0px" y="0px"
	 viewBox="0 0 50 50" style="enable-background:new 0 0 50 50;" xml:space="preserve">
<style type="text/css">
	.st0{fill:url(#SVGID_1_);}
</style>
<g>
	<g>
		<linearGradient id="SVGID_1_" gradientUnits="userSpaceOnUse" x1="11.0609" y1="38.6067" x2="44.2858" y2="5.3818">
			<stop  offset="3.910342e-03" style="stop-color:#00B894"/>
			<stop  offset="1" style="stop-color:#74B9FF"/>
		</linearGradient>
		<path class="st0" d="M42.2,9.5c-0.2,0.2-0.1,0.6,0.2,0.5c4-0.9,6.3,3.3,2.7,5.9c-2.4,1.8-5.3-0.6-6.6-2.6c-0.3-0.5-0.6-1-0.8-1.5
			v0c-2-4.6-3.8-10.6-10.4-10.6c-6.6,0-9.1,8.2-10.6,11.6v0c-0.7,1.6-1.4,3.1-2.4,4.5c-1.7,2.4-4.2,3.8-7,3.9c-1.4,0.1-2.6-1-3.5-2
			c-2.1-2.2,0.7-7.3,3-4.4c0.1,0.1,0.3,0,0.3-0.2c-0.6-3.9-4.3-2.7-6-0.4C-1.7,18,1.2,22.1,4.4,24c3.3,1.9,8.4,0.2,11.3-2.3
			c-0.1,2.2,0.7,4.5,2.4,6.3c0.8,0.9,1.7,1.5,2.7,1.9c-0.1,2.3-0.5,4.6-1.6,6.5c-0.9,1.6-2.5,2-4.1,1.9c-2.4-0.1-1.3-2.2-1.1-3.3
			c0-0.1-0.1-0.1-0.1-0.1c-1.8,1.2-2,3.4-0.9,5.3c1.6,2.8,5.9,1.8,7.8,0.1c2.8-2.5,4.1-5.8,4.7-9.6c0.1,0,0.2,0,0.3,0
			c0.4,2.5,1.6,5,2.6,7.2c0.6,1.4,1.1,2.7,1.4,4.2c0.5,2.8-0.9,6.4-4.1,4.2c-0.1-0.1-0.1,0-0.1,0.1c0.7,1.7,2.7,2.9,4.5,1.8
			c2.3-1.6,3.1-5.2,2.5-8c-0.3-1.5-0.6-2.9-0.9-4.3c1,0.8,2.4,1,3.8,0.2c2.1-1.3,1.7-4.2,0.1-6.3c-1-1.3-2.9-2.1-4.9-2.6
			c0,0,0-0.1,0-0.1c0-1,0-2,0.1-3c1.2,1.2,2.4,2.3,3.9,2.9c2.2,1,5.8,1.8,4,5.3c-1.2,2.5-2.9,6.3-0.5,8.8c1.4,1.4,3.5,1.9,4.6,0
			c0.1-0.2-0.1-0.3-0.3-0.3c-3,1.2-3-2.8-2.1-4.6c0.7-1.4,1.7-2.6,2.4-4c1-2.1,0-4.9-1.5-6.5c-1-1.1-2-1.8-3.2-2.5
			c-0.1-0.1-0.2-0.2-0.3-0.2l0,0c-2.8-2-3.2-4.6-0.7-3c0.1,0,0.1,0.1,0.2,0.1l0,0c0.1,0.1,0.2,0.1,0.3,0.2c2.8,1.6,6.2,1.6,9-0.2
			c2.7-1.7,4.5-5.4,3.1-8.7C48,7.8,44.9,7.2,42.2,9.5z M29.4,12.3c0-0.6,0.5-1.1,1-1.1c0.6,0,1,0.5,1,1.1s-0.5,1.1-1,1.1
			C29.9,13.4,29.4,12.9,29.4,12.3z M25.5,12.3c0,0.6-0.5,1.1-1,1.1c-0.6,0-1-0.5-1-1.1s0.5-1.1,1-1.1S25.5,11.7,25.5,12.3z
			 M31.4,35.2c-0.3-1.4-0.5-2.7-0.7-4.1c0.4,0,0.9,0.1,1.3,0.2C35,31.7,34.5,36.1,31.4,35.2z"/>
	</g>
</g>
</svg>
