<?xml version="1.0" encoding="utf-8"?>
<!-- Generator: Adobe Illustrator 24.1.1, SVG Export Plug-In . SVG Version: 6.00 Build 0)  -->
<svg version="1.1" id="Layer_1" xmlns="http://www.w3.org/2000/svg" xmlns:xlink="http://www.w3.org/1999/xlink" x="0px" y="0px"
	 viewBox="0 0 300 300" style="enable-background:new 0 0 300 300;" xml:space="preserve">
<style type="text/css">
	.st0{fill:#FFFFFF;}
	.st1{fill:#2D3436;}
</style>
<path class="st0" d="M198.9,191c-6.7,6.6-13.3,11.9-23.7,11.7c-37.3-0.6-74.6-0.3-111.9-0.2c-3.6,0-5.8-1-7.4-4.3
	c-3.1-6.1-9-11.8-9.3-17.9c-0.3-6.4,6.1-12.1,9.4-18.3c0.7-1.3,1.5-2.5,3-4.9c1.5,7.6,7.4,13.5,1.3,20.9c-2.6,3.2,3.6,12.8,7.8,12.9
	c4.7,0.1,9.3,0,14,0c37.1,0,74.3,0,111.4,0C195.3,191,197.1,191,198.9,191z"/>
<path class="st0" d="M213.9,202.4c3.5-4,6.2-7.4,9.2-10.5c2-2.1,4.7-0.8,7.1-0.9c5.5-0.2,10.8-9.2,8-14.1c-20.8-36-41.5-72-62.3-108
	c-1-1.7-1.9-3.4-3.6-6.5c8.1,3.2,15.7,4.5,19.9,11.7c19.7,34,39.2,68,59,101.9c1.9,3.2,1.9,5.5-0.1,8.5c-3.2,4.9-5.9,10-8.8,15.1
	c-0.7,1.3-1.3,2.8-3.2,2.8C230.9,202.4,222.8,202.4,213.9,202.4z"/>
<path class="st0" d="M75.5,151.2c-2.4-10.8-2.4-19.7,3.3-29.1c19.1-31.6,37.2-63.8,55.5-95.8c1.6-2.8,3.4-4.3,6.7-3.8c1,0.1,2,0,3,0
	c6.1,0.3,13.3-2.2,18.1,0.9c4.5,3,6.4,9.8,9.5,14.9c1.2,2,2.3,4,3.7,6.5c-4.8-0.9-9-1.8-13.2-2.5c-2.4-0.4-2.9-2.6-3.9-4.2
	c-3.8-6.3-13.7-6.2-17.4,0.2c-20.6,35.7-41.2,71.4-61.8,107.1C78,147.2,77,148.7,75.5,151.2z"/>
<path class="st0" d="M115.5,52c-5.4,9-9.9,17.1-17.5,23.7c-32.3,27.8-36.3,74.1-10.2,107.7c0.7,0.9,1.3,1.8,2.6,3.5
	c-4.7,0-8.6-0.1-12.6,0c-1.8,0-2.6-1.1-3.5-2.4C43.7,138.4,61.4,75.5,112.7,52.4C113.3,52.2,113.9,52.2,115.5,52z"/>
<path class="st0" d="M238.5,147.7c-4.6-9.4-10.3-16.5-11.7-26.2C221,80.9,180.5,51,140,56.7c-1.6,0.2-3.3,0.3-5.7,0.5
	c2.3-4.1,4.3-7.5,6.2-10.9c0.9-1.6,2.5-1.3,4-1.4c43.3-3.6,85.1,28.6,93.4,71.9C239.7,126.5,240.5,136.2,238.5,147.7z"/>
<path class="st0" d="M224.5,160.9c2,3.5,4,6.9,6,10.3c1.1,1.8,0,3.2-0.8,4.7c-14.4,26.8-36.6,43.2-66.6,48
	c-22.8,3.7-44-1.2-63.3-13.8c-1.5-1-3.2-1.7-4.5-4.1c9,0.6,17.5-1.2,26.2,2.2c39,15.4,83.5-3.5,100.3-42.2
	C222.5,164.3,222.6,162.4,224.5,160.9z"/>
<path class="st0" d="M221.1,258.6c-2,5.6-4.1,11.2-5.9,16.9c-0.7,2.2-1.6,3.3-4.1,3.4c-2.7,0.1-3.4-1.4-4.1-3.4
	c-1.9-5.6-3.9-11.2-6.9-16.6c0,5.4-0.1,10.7,0,16.1c0.1,2.6-0.5,3.9-3.6,3.9c-3,0-3.6-1.4-3.5-4c0.1-8.1,0-16.3,0.1-24.4
	c0-1.9-1-5,2.6-4.6c3.2,0.4,7.5-2.4,9.1,3.1c1.8,5.8,3.9,11.6,6.4,18.8c2.3-7,4.4-12.6,5.9-18.3c1.5-5.9,5.9-3.4,9.3-3.6
	c4.1-0.3,2.4,3.2,2.5,5.1c0.2,8,0,16,0.1,23.9c0,2.5-0.3,4-3.4,3.9c-2.9,0-3.7-1-3.6-3.8c0.2-5.5,0.1-11,0.1-16.4
	C221.7,258.7,221.4,258.7,221.1,258.6z"/>
<path class="st0" d="M146.8,262c0.1-10.5,6.6-17.3,16.5-17.2c9.7,0.1,16.1,7.3,16,17.8c-0.2,10.3-6.6,16.8-16.3,16.8
	C153,279.4,146.7,272.6,146.8,262z"/>
<path class="st0" d="M84.7,245.9c3.1-0.8,4.4,0.8,5.4,3.6c2.9,8.3,6.1,16.5,9.1,24.8c0.5,1.4,2.7,3.6-0.2,4.3c-2,0.5-5,1.5-6.5-1.7
	c-0.9-1.8-0.5-4.8-3.1-5.2c-3.1-0.4-6.3-0.2-9.4-0.1c-2.2,0.1-2,2.3-2.7,3.7c-0.7,1.6-0.9,3.3-3.5,3.5c-4.8,0.3-5.3-0.2-3.6-4.7
	c3.1-8.2,6.3-16.4,9.2-24.7C80.2,246.7,81.5,245.1,84.7,245.9z"/>
<path class="st0" d="M122.1,245.8c3.3,0,6.7,0.1,10,0c2.6-0.1,3.5,0.8,3.5,3.4c0,2.7-1.5,3.1-3.5,2.8c-5.8-1.1-7,1.6-6.6,6.8
	c0.4,5.5,0,11,0.1,16.5c0.1,2.9-1.1,3.6-3.8,3.6c-2.7,0-3.8-0.7-3.8-3.6c0.2-6.3-0.2-12.6,0.1-18.9c0.2-3.5-1-4.8-4.5-4.4
	c-1.6,0.2-3.4,0.6-4.8-0.5c-1.2-0.9-0.5-2.5-0.6-3.8c0-1.6,1.1-1.9,2.4-1.9C114.4,245.8,118.3,245.8,122.1,245.8
	C122.1,245.8,122.1,245.8,122.1,245.8z"/>
<path class="st1" d="M171.9,262.1c0.1,6.6-3.3,10.9-8.8,11c-5.4,0.1-9-4.3-9-10.8c0-6.6,3.5-11.1,8.8-11.2
	C168.2,251,171.8,255.5,171.9,262.1z"/>
<path class="st1" d="M84.5,254.4c1.1,3.1,1.7,5.2,2.6,7.1c1.6,3.5,0.6,4.6-3.1,4.4c-2.8-0.1-3.5-0.9-2.3-3.5
	C82.6,260.1,83.3,257.8,84.5,254.4z"/>
</svg>
