<?xml version="1.0" encoding="utf-8"?>
<!-- Generator: Adobe Illustrator 24.1.1, SVG Export Plug-In . SVG Version: 6.00 Build 0)  -->
<svg version="1.1" id="Layer_1" xmlns="http://www.w3.org/2000/svg" xmlns:xlink="http://www.w3.org/1999/xlink" x="0px" y="0px"
	 viewBox="0 0 100 98.2" style="enable-background:new 0 0 100 98.2;" xml:space="preserve">
<style type="text/css">
	.st0{fill:#FFFFFF;}
</style>
<path class="st0" d="M94.7,18.7c-0.3-3.8-2-7.3-4.7-10C87.3,6,83.8,4.3,80,4c-3.6-0.4-7.3,0.9-9.9,3.5L11.9,65.7c-1,1-1.7,2.3-2,3.7
	l-5,21.4c-0.3,1.3,0.5,2.7,1.9,3c0.2,0,0.4,0.1,0.6,0.1c0.2,0,0.4,0,0.6-0.1l21.4-5c1.4-0.3,2.7-1,3.7-2l58.3-58.2
	C93.8,25.9,95.1,22.3,94.7,18.7z M77.4,35.3c-2.3-6.6-7.4-11.7-14-14l3.4-3.4c7.1,1.4,12.6,6.9,14,14L77.4,35.3z M32.7,80
	c-0.8-2.5-2.1-4.8-3.7-6.8l41.1-41.1c1.6,2.1,2.7,4.6,3.2,7.3L32.7,80z M59.3,25.3c2.6,0.5,5.1,1.6,7.3,3.2L25.5,69.7
	c-2-1.6-4.3-2.9-6.8-3.7L59.3,25.3z M11.8,83.3c1.4,1,2.7,2.2,3.6,3.6L10.7,88L11.8,83.3z M28.2,83.9l-7.7,1.7
	c-1.7-3.2-4.3-5.8-7.5-7.5l1.8-7.7c0-0.1,0.1-0.3,0.2-0.4c6.9,1.4,12.3,6.8,13.6,13.7C28.4,83.8,28.3,83.9,28.2,83.9L28.2,83.9z
	 M87.7,25l-2.8,2.8c-2.3-6.6-7.4-11.7-14-14l2.8-2.8C75.1,9.7,77,8.9,78.9,9c2.8,0.1,5.5,1.3,7.5,3.3C90.3,16.1,90.9,21.8,87.7,25z"
	/>
<path class="st0" d="M24.8,44.5c1.4,0,2.5-1.1,2.5-2.5c0-0.7-0.3-1.3-0.7-1.8l-3.4-3.4l5.1-5.1c1-1,1-2.6,0-3.5s-2.6-1-3.5,0
	l-5.1,5.1l-3.9-3.9l5.1-5.1c1-1,1-2.6,0-3.5c-1-1-2.6-1-3.5,0l0,0l-5.1,5.1l-4.4-4.4c-0.1-0.1-0.1-0.3,0-0.4L22.5,6.4
	c0.1-0.1,0.3-0.1,0.4,0l18.8,18.8c1,0.9,2.6,0.8,3.5-0.2c0.8-0.9,0.8-2.4,0-3.3L26.4,2.9c-2.1-2-5.4-2-7.4,0L4.2,17.6
	c-2,2.1-2,5.4,0,7.4L23,43.8C23.5,44.3,24.1,44.5,24.8,44.5z"/>
<path class="st0" d="M77,53.5c-1-1-2.6-1-3.5,0s-1,2.6,0,3.5l0,0l18.8,18.8c0.1,0.1,0.1,0.3,0,0.4L77.5,90.9c-0.1,0.1-0.3,0.1-0.4,0
	l-4.4-4.4l5.1-5.1c1-1,1-2.6,0-3.5s-2.6-1-3.5,0l-5.1,5.1L65.3,79l5.1-5.1c1-1,1-2.6,0-3.5s-2.6-1-3.5,0l-5.1,5.1l-3.4-3.4
	c-1-0.9-2.6-0.8-3.5,0.2c-0.8,0.9-0.8,2.4,0,3.3l18.8,18.8c2.1,2,5.4,2,7.4,0l14.7-14.7c2-2.1,2-5.4,0-7.4L77,53.5z"/>
</svg>
